<?xml version="1.0" encoding="UTF-8" standalone="no"?>
<svg width="28px" height="28px" viewBox="0 0 28 28" version="1.1" xmlns="http://www.w3.org/2000/svg" xmlns:xlink="http://www.w3.org/1999/xlink" xmlns:sketch="http://www.bohemiancoding.com/sketch/ns">
    <!-- Generator: Sketch 3.0.4 (8053) - http://www.bohemiancoding.com/sketch -->
    <title>Artboard 46</title>
    <desc>Created with Sketch.</desc>
    <defs></defs>
    <g id="Page-1" stroke="none" stroke-width="1" fill="none" fill-rule="evenodd" sketch:type="MSPage">
        <g id="Artboard-46" sketch:type="MSArtboardGroup" fill="#000000">
            <g id="Rectangle-4-+-Oval-72-+-Line-+-Line-10-+-Shop-It-4-+-Oval-72-+-Line-+-Line-16" sketch:type="MSLayerGroup" transform="translate(14.000000, 14.000000) rotate(-180.000000) translate(-14.000000, -14.000000) translate(0.000000, -0.000000)">
                <g id="Oval-72-+-Line-+-Line-13" sketch:type="MSShapeGroup">
                    <g id="Line-+-Line-2" transform="translate(11.881553, 9.384949)">
                        <path d="M0.671481987,8.33401261 C0.373414087,8.63577863 0.376412,9.12204009 0.678178012,9.42010799 C0.979944025,9.71817589 1.46620549,9.71517798 1.76427339,9.41341196 L5.56602773,5.56448945 C5.86409563,5.26272344 5.86109772,4.77646198 5.5593317,4.47839408 C5.25756569,4.18032618 4.77130423,4.18332409 4.47323633,4.4850901 L0.671481987,8.33401261 Z" id="Line-2"></path>
                        <path d="M4.50658565,5.59825253 C4.80465354,5.90001854 5.29091501,5.90301646 5.59268102,5.60494856 C5.89444703,5.30688066 5.89744495,4.82061919 5.59937705,4.51885318 L1.7976227,0.66993067 C1.4995548,0.368164657 1.01329334,0.365166744 0.711527327,0.663234644 C0.409761315,0.961302544 0.406763402,1.44756401 0.704831302,1.74933002 L4.50658565,5.59825253 Z" id="Line"></path>
                    </g>
                    <path d="M28.0875658,14.0962171 C28.0875658,6.26273012 21.7372699,-0.0875657895 13.9037829,-0.0875657895 C6.07029591,-0.0875657895 -0.28,6.26273012 -0.28,14.0962171 C-0.28,21.9297041 6.07029591,28.28 13.9037829,28.28 C21.7372699,28.28 28.0875658,21.9297041 28.0875658,14.0962171 Z M2.28,14.0962171 C2.28,7.67657908 7.48414487,2.47243421 13.9037829,2.47243421 C20.3234209,2.47243421 25.5275658,7.67657908 25.5275658,14.0962171 C25.5275658,20.5158551 20.3234209,25.72 13.9037829,25.72 C7.48414487,25.72 2.28,20.5158551 2.28,14.0962171 Z" id="Oval-72"></path>
                </g>
            </g>
        </g>
    </g>
</svg> 
